<svg height="409pt" viewBox="0 -13 409.60714 409" width="409pt" xmlns="http://www.w3.org/2000/svg"><path d="m339.394531 382.597656h-209.6875c-3.773437 0-6.828125-3.054687-6.828125-6.828125v-102.40625c0-3.773437 3.054688-6.828125 6.828125-6.828125 3.773438 0 6.828125 3.054688 6.828125 6.828125v95.582031h202.859375c8.597657 0 15.59375-6.996093 15.59375-15.59375v-120.941406h-209.429687c-3.773438 0-6.824219-3.054687-6.824219-6.828125 0-3.773437 3.050781-6.824219 6.824219-6.824219h216.253906c3.773438 0 6.828125 3.050782 6.828125 6.824219v127.769531c0 16.125-13.121094 29.246094-29.246094 29.246094zm0 0"/><path d="m397.335938 232.410156h-251.769532c-3.773437 0-6.828125-3.054687-6.828125-6.828125 0-3.773437 3.054688-6.824219 6.828125-6.824219h248.488282l-148.292969-154-117.410157 121.933594c-2.617187 2.734375-6.945312 2.792969-9.652343.183594-2.71875-2.617188-2.800781-6.9375-.183594-9.652344l122.324219-127.039062c2.574218-2.679688 7.269531-2.679688 9.84375 0l155.34375 161.324218c3.433594 3.3125 4.554687 8.574219 2.671875 13.234376-1.886719 4.660156-6.347657 7.667968-11.363281 7.667968zm-1.023438-11.304687c.015625.011719.035156.03125.054688.050781zm0 0"/><path d="m199.898438 162.902344c-8 0-15.179688-4.757813-18.300782-12.132813-1.464844-3.472656.15625-7.480469 3.628906-8.945312 3.464844-1.464844 7.480469.152343 8.945313 3.625 1.921875 4.527343 9.179687 4.707031 11.3125.300781 1.640625-3.386719 5.734375-4.804688 9.128906-3.152344 3.386719 1.644532 4.800781 5.730469 3.152344 9.125-3.300781 6.792969-10.3125 11.179688-17.867187 11.179688zm0 0"/><path d="m288.359375 162.902344c-7.554687 0-14.566406-4.386719-17.867187-11.179688-1.644532-3.394531-.234376-7.480468 3.15625-9.128906 3.40625-1.636719 7.480468-.230469 9.125 3.15625 2.132812 4.40625 9.394531 4.226562 11.3125-.300781 1.46875-3.488281 5.496093-5.085938 8.949218-3.628907 3.472656 1.46875 5.089844 5.476563 3.625 8.949219-3.121094 7.375-10.300781 12.132813-18.300781 12.132813zm0 0"/><path d="m314.027344 382.597656h-54.613282c-3.773437 0-6.828124-3.054687-6.828124-6.828125v-109.226562c0-3.773438 3.054687-6.824219 6.828124-6.824219h54.613282c3.773437 0 6.824218 3.050781 6.824218 6.824219v109.226562c0 3.773438-3.050781 6.828125-6.824218 6.828125zm-47.789063-13.652344h40.960938v-95.574218h-40.960938zm0 0"/><path d="m218.453125 321.15625h-47.785156c-3.773438 0-6.828125-3.050781-6.828125-6.824219v-47.789062c0-3.773438 3.054687-6.824219 6.828125-6.824219h47.785156c3.773437 0 6.828125 3.050781 6.828125 6.824219v47.789062c0 3.773438-3.054688 6.824219-6.828125 6.824219zm-40.960937-13.652344h34.132812v-34.132812h-34.132812zm0 0"/><path d="m232.105469 321.15625h-75.09375c-3.773438 0-6.824219-3.050781-6.824219-6.824219 0-3.773437 3.050781-6.828125 6.824219-6.828125h75.09375c3.773437 0 6.828125 3.054688 6.828125 6.828125 0 3.773438-3.054688 6.824219-6.828125 6.824219zm0 0"/><path d="m245.761719 198.277344c-16.355469 0-31.347657-5.765625-40.113281-15.421875-2.535157-2.785157-2.328126-7.105469.464843-9.636719 2.785157-2.523438 7.105469-2.332031 9.636719.464844 6.128906 6.746094 17.628906 10.941406 30.007812 10.941406 12.242188 0 23.679688-4.128906 29.847657-10.769531 2.558593-2.765625 6.886719-2.925781 9.644531-.351563 2.761719 2.566406 2.921875 6.886719.355469 9.644532-8.789063 9.476562-23.691407 15.128906-39.84375 15.128906zm0 0"/><path d="m197.972656 382.597656h-157.011718c-3.773438 0-6.828126-3.054687-6.828126-6.828125 0-3.773437 3.054688-6.824219 6.828126-6.824219h157.011718c3.773438 0 6.828125 3.050782 6.828125 6.824219 0 3.773438-3.054687 6.828125-6.828125 6.828125zm0 0"/><path d="m95.574219 136.835938h-40.960938c-3.773437 0-6.828125-3.050782-6.828125-6.824219v-102.402344c0-15.058594 12.25-27.304687 27.308594-27.304687s27.304688 12.246093 27.304688 27.304687v102.402344c0 3.773437-3.050782 6.824219-6.824219 6.824219zm-34.132813-13.652344h27.304688v-95.574219c0-7.527344-6.125-13.652344-13.652344-13.652344s-13.652344 6.125-13.652344 13.652344zm0 0"/><path d="m75.09375 307.503906c-41.40625 0-75.09375-33.6875-75.09375-75.09375 0-31.265625 19.007812-58.777344 47.785156-69.964844v-32.433593c0-3.773438 3.054688-6.828125 6.828125-6.828125h40.960938c3.773437 0 6.824219 3.054687 6.824219 6.828125v32.433593c28.78125 11.1875 47.789062 38.699219 47.789062 69.964844 0 41.40625-33.6875 75.09375-75.09375 75.09375zm-13.652344-170.667968v30.441406c0 2.980468-1.933594 5.621094-4.78125 6.511718-25.71875 8.085938-43.007812 31.648438-43.007812 58.621094 0 33.878906 27.558594 61.441406 61.441406 61.441406 33.878906 0 61.441406-27.5625 61.441406-61.441406 0-26.972656-17.289062-50.53125-43.007812-58.621094-2.847656-.890624-4.78125-3.53125-4.78125-6.511718v-30.441406zm0 0"/><path d="m27.308594 34.4375h-13.65625c-3.773438 0-6.824219-3.054688-6.824219-6.828125s3.050781-6.824219 6.824219-6.824219h13.65625c3.773437 0 6.824218 3.050782 6.824218 6.824219s-3.050781 6.828125-6.824218 6.828125zm0 0"/><path d="m27.308594 54.917969h-13.65625c-3.773438 0-6.824219-3.054688-6.824219-6.828125 0-3.773438 3.050781-6.828125 6.824219-6.828125h13.65625c3.773437 0 6.824218 3.054687 6.824218 6.828125 0 3.773437-3.050781 6.828125-6.824218 6.828125zm0 0"/><path d="m27.308594 75.398438h-13.65625c-3.773438 0-6.824219-3.054688-6.824219-6.828126 0-3.773437 3.050781-6.828124 6.824219-6.828124h13.65625c3.773437 0 6.824218 3.054687 6.824218 6.828124 0 3.773438-3.050781 6.828126-6.824218 6.828126zm0 0"/><path d="m27.308594 95.875h-13.65625c-3.773438 0-6.824219-3.050781-6.824219-6.824219 0-3.773437 3.050781-6.828125 6.824219-6.828125h13.65625c3.773437 0 6.824218 3.054688 6.824218 6.828125 0 3.773438-3.050781 6.824219-6.824218 6.824219zm0 0"/><path d="m27.308594 116.355469h-13.65625c-3.773438 0-6.824219-3.050781-6.824219-6.824219s3.050781-6.828125 6.824219-6.828125h13.65625c3.773437 0 6.824218 3.054687 6.824218 6.828125s-3.050781 6.824219-6.824218 6.824219zm0 0"/><path d="m27.308594 136.835938h-13.65625c-3.773438 0-6.824219-3.050782-6.824219-6.824219 0-3.773438 3.050781-6.828125 6.824219-6.828125h13.65625c3.773437 0 6.824218 3.054687 6.824218 6.828125 0 3.773437-3.050781 6.824219-6.824218 6.824219zm0 0"/></svg>